<svg width="65" height="65" viewBox="0 0 65 65" fill="none" xmlns="http://www.w3.org/2000/svg">
<path d="M13.0468 17.9399H2.17848C0.977495 17.9399 0.00390625 16.9663 0.00390625 15.7654C0.00390625 14.5644 0.977495 13.5908 2.17848 13.5908H13.0468V2.72242C13.0468 1.52144 14.0204 0.547852 15.2214 0.547852C16.4224 0.547852 17.396 1.52144 17.396 2.72242V13.5908H28.2643C29.4653 13.5908 30.4389 14.5644 30.4389 15.7654C30.4389 16.9663 29.4653 17.9399 28.2643 17.9399H17.396V28.8083C17.396 30.0093 16.4224 30.9829 15.2214 30.9829C14.0204 30.9829 13.0468 30.0093 13.0468 28.8083V17.9399Z" fill="#3A3D42"/>
<path d="M59.438 9.24418C59.438 6.84222 57.4908 4.89504 55.0888 4.89504H42.0414C39.6394 4.89504 37.6923 6.84222 37.6923 9.24418V22.2916C37.6923 24.6936 39.6394 26.6407 42.0414 26.6407H55.0888C57.4908 26.6407 59.438 24.6936 59.438 22.2916V9.24418ZM63.7871 9.24418V22.2916C63.7871 27.0955 59.8928 30.9899 55.0888 30.9899H42.0414C37.2375 30.9899 33.3431 27.0955 33.3431 22.2916V9.24418C33.3431 4.44025 37.2375 0.545898 42.0414 0.545898L55.0888 0.545898C59.8928 0.545898 63.7871 4.44025 63.7871 9.24418Z" fill="#3A3D42"/>
<path d="M26.0947 49.1116C26.0947 43.1067 21.2268 38.2388 15.2219 38.2388C9.21695 38.2388 4.349 43.1067 4.349 49.1116C4.349 55.1166 9.21695 59.9845 15.2219 59.9845C21.2268 59.9845 26.0947 55.1166 26.0947 49.1116ZM30.4438 49.1116C30.4438 57.5185 23.6287 64.3336 15.2219 64.3336C6.81498 64.3336 -0.000135422 57.5185 -0.000135422 49.1116C-0.000135422 40.7048 6.81498 33.8896 15.2219 33.8896C23.6287 33.8896 30.4438 40.7048 30.4438 49.1116Z" fill="#3A3D42"/>
<path d="M41.1059 59.9855H57.4758L49.2908 43.6157L41.1059 59.9855ZM49.5502 34.4094L64.303 63.9151C64.3746 64.0583 64.3166 64.2325 64.1734 64.3041C64.1331 64.3242 64.0887 64.3347 64.0437 64.3347H34.538C34.3779 64.3347 34.248 64.2049 34.248 64.0447C34.248 63.9997 34.2585 63.9553 34.2787 63.9151L49.0315 34.4094C49.1031 34.2661 49.2773 34.2081 49.4205 34.2797C49.4766 34.3078 49.5221 34.3533 49.5502 34.4094Z" fill="#3A3D42"/>
</svg>
