<svg width="566" height="102" viewBox="0 0 566 102" fill="none" xmlns="http://www.w3.org/2000/svg">
<path d="M0 0H527.479L539.182 51.4033L528.315 101.808H0V0Z" fill="#1D1E1F"/>
<g clip-path="url(#clip0)">
<path d="M520.336 0H494.25L536.65 51L494.25 102H520.336L562.697 51L520.336 0Z" fill="#622208"/>
<path d="M523.639 0H497.553L539.952 51L497.553 102H523.639L565.999 51L523.639 0Z" fill="#FF4A00"/>
</g>
<g opacity="0.2">
<g clip-path="url(#clip1)">
<path d="M479.399 0H453.312L495.712 51L453.312 102H479.399L521.759 51L479.399 0Z" fill="#622208"/>
<path d="M482.701 0H456.615L499.015 51L456.615 102H482.701L525.062 51L482.701 0Z" fill="#FF4A00"/>
</g>
</g>
<g opacity="0.06">
<g clip-path="url(#clip2)">
<path d="M439.459 0H413.373L455.773 51L413.373 102H439.459L481.82 51L439.459 0Z" fill="#622208"/>
<path d="M442.762 0H416.676L459.075 51L416.676 102H442.762L485.122 51L442.762 0Z" fill="#FF4A00"/>
</g>
</g>
<path d="M38.5414 81.0059V58.4004H41.4242V81.0059H38.5414ZM34.6039 75.416C32.4242 73.8457 30.7289 72.0215 29.5179 69.9434C27.9711 72.6699 26.2836 74.6387 24.4554 75.8496L22.2992 73.9746C23.7367 73.2715 25.0492 72.0566 26.2367 70.3301C27.432 68.5957 28.0297 66.877 28.0297 65.1738V62.7715H23.1312V60.2988H35.7523V62.7715H30.9594V65.0918C30.9594 66.6934 31.5258 68.2715 32.6586 69.8262C33.7914 71.3809 35.0883 72.5254 36.5492 73.2598L34.6039 75.416ZM62.6351 74.502V58.4004H65.5179V74.502H62.6351ZM53.3539 71.2676C51.6039 71.2676 50.1547 70.709 49.0062 69.5918C47.8578 68.4668 47.2836 67.0332 47.2836 65.291C47.2836 63.5332 47.8578 62.0957 49.0062 60.9785C50.1547 59.8535 51.6039 59.291 53.3539 59.291C55.1039 59.291 56.5531 59.8496 57.7015 60.9668C58.85 62.084 59.4242 63.5254 59.4242 65.291C59.4242 67.041 58.85 68.4746 57.7015 69.5918C56.5531 70.709 55.1039 71.2676 53.3539 71.2676ZM53.3539 61.7637C52.4164 61.7637 51.6469 62.0879 51.0453 62.7363C50.4515 63.3848 50.1547 64.2363 50.1547 65.291C50.1547 66.3379 50.4515 67.1855 51.0453 67.834C51.6469 68.4746 52.4164 68.7949 53.3539 68.7949C54.307 68.7949 55.0765 68.4746 55.6625 67.834C56.2484 67.1855 56.5414 66.3379 56.5414 65.291C56.5414 64.2598 56.2445 63.416 55.6508 62.7598C55.057 62.0957 54.2914 61.7637 53.3539 61.7637ZM50.9281 80.2207V72.7559H53.8812V77.748H65.9515V80.2207H50.9281ZM97.9554 69.0059C96.3773 68.7793 94.8031 68.291 93.2328 67.541C91.6625 66.791 90.4125 65.9512 89.4828 65.0215C88.6703 65.9199 87.4711 66.7441 85.8851 67.4941C84.2992 68.2441 82.6898 68.7637 81.057 69.0527L79.2875 66.8027C81.2875 66.6465 83.0922 66.166 84.7015 65.3613C86.3109 64.5488 87.3031 63.6543 87.6781 62.6777H81.1273V60.2285H87.9945V58.084H90.9476V60.2285H97.7914V62.6777H91.2406C91.6312 63.623 92.6312 64.4941 94.2406 65.291C95.85 66.0879 97.6 66.584 99.4906 66.7793L97.9554 69.0059ZM90.9008 72.9434V80.9824H87.9711V72.9434H78.9711V70.4473H99.9476V72.9434H90.9008ZM115.662 72.252C114.756 71.9004 113.784 71.3301 112.745 70.541C111.705 69.752 110.912 68.9863 110.366 68.2441C109.905 69.041 109.174 69.8809 108.174 70.7637C107.174 71.6387 106.182 72.3184 105.198 72.8027L103.217 70.834C105.014 70.0996 106.393 69.166 107.354 68.0332C108.323 66.9004 108.807 65.6738 108.807 64.3535V63.252H103.838V60.8496H108.83V58.3301H111.784V60.8496H116.752V63.252H111.784V64.4238C111.784 65.6738 112.354 66.8457 113.495 67.9395C114.643 69.0254 115.944 69.7246 117.397 70.0371L115.662 72.252ZM119.436 74.5723V67.2363H115.287V64.8105H119.436V58.4004H122.319V74.5723H119.436ZM107.729 80.2207V72.7559H110.67V77.748H122.752V80.2207H107.729ZM145.182 70.6934V81.0059H142.241V58.4004H145.182V68.2207H148.721V70.6934H145.182ZM127.264 63.9902V61.5176H132.678V58.4004H135.655V61.5176H141.08V63.9902H127.264ZM134.12 75.7559C132.385 75.7559 130.963 75.2598 129.854 74.2676C128.745 73.2676 128.19 72.002 128.19 70.4707C128.19 68.8926 128.737 67.6113 129.83 66.627C130.924 65.6348 132.362 65.1387 134.143 65.1387C135.909 65.1387 137.346 65.6348 138.455 66.627C139.565 67.6191 140.12 68.9082 140.12 70.4941C140.12 72.0332 139.565 73.2949 138.455 74.2793C137.346 75.2637 135.901 75.7559 134.12 75.7559ZM134.143 67.6113C133.221 67.6113 132.487 67.873 131.94 68.3965C131.393 68.9121 131.12 69.6035 131.12 70.4707C131.12 71.2988 131.389 71.9746 131.928 72.498C132.467 73.0215 133.205 73.2832 134.143 73.2832C135.073 73.2832 135.811 73.0176 136.358 72.4863C136.912 71.9551 137.19 71.2832 137.19 70.4707C137.19 69.6191 136.912 68.9316 136.358 68.4082C135.811 67.877 135.073 67.6113 134.143 67.6113ZM168.995 65.2207C168.995 67.8066 168.819 70.4121 168.467 73.0371L165.561 72.8262C165.881 70.4121 166.041 68.1074 166.041 65.9121V62.8887H153.631V60.4629H168.995V65.2207ZM150.971 77.9121V75.4395H158.436V67.9043H161.389V75.4395H171.948V77.9121H150.971ZM199.873 81.0059V58.4004H202.827V81.0059H199.873ZM196.756 70.8574C194.248 70.0762 192.287 68.8105 190.873 67.0605C189.444 69.0137 187.467 70.4707 184.944 71.4316L183.045 69.3691C184.733 68.9082 186.166 68.1543 187.346 67.1074C188.534 66.0527 189.198 64.9668 189.338 63.8496H184.182V61.4238H189.362V58.9043H192.315V61.4238H197.284V63.8496H192.315C192.455 64.9355 193.12 65.959 194.307 66.9199C195.502 67.8809 196.909 68.4824 198.526 68.7246L196.756 70.8574ZM199.159 77.0684C197.963 77.1543 195.502 77.2402 191.776 77.3262C188.057 77.4121 185.162 77.4551 183.092 77.4551L182.764 74.9824C185.233 74.9824 187.487 74.959 189.526 74.9121V70.3301H192.479V74.8652C195.01 74.834 197.186 74.7598 199.006 74.6426L199.159 77.0684ZM224.166 81.0059V69.709H222.116V80.3379H219.221V58.8574H222.116V67.2363H224.166V58.4004H227.084V81.0059H224.166ZM217.873 74.3379C215.584 74.5957 212.385 74.7246 208.276 74.7246V60.3223H217.182V62.7949H211.159V72.252H212.459C214.295 72.252 216.03 72.1465 217.662 71.9355L217.873 74.3379ZM250.686 76.9043H239.612V74.3027L244.58 69.4746C245.721 68.3652 246.498 67.4668 246.912 66.7793C247.327 66.084 247.534 65.3574 247.534 64.5996C247.534 62.873 246.608 62.0098 244.756 62.0098C243.264 62.0098 241.83 62.6191 240.455 63.8379V60.8613C241.901 59.8691 243.553 59.373 245.412 59.373C247.061 59.373 248.377 59.8027 249.362 60.6621C250.346 61.5137 250.838 62.6934 250.838 64.2012C250.838 66.2246 249.577 68.3965 247.053 70.7168L243.373 74.0918V74.1504H250.686V76.9043ZM253.159 68.5723C253.159 65.5723 253.694 63.291 254.764 61.7285C255.842 60.1582 257.405 59.373 259.452 59.373C263.342 59.373 265.287 62.3066 265.287 68.1738C265.287 71.0645 264.756 73.2949 263.694 74.8652C262.639 76.4277 261.108 77.209 259.1 77.209C255.139 77.209 253.159 74.3301 253.159 68.5723ZM256.475 68.4902C256.475 72.5996 257.397 74.6543 259.241 74.6543C261.045 74.6543 261.948 72.5449 261.948 68.3262C261.948 64.0527 261.065 61.916 259.299 61.916C257.416 61.916 256.475 64.1074 256.475 68.4902ZM285.877 67.5879V74.6777H282.959V58.4004H285.877V65.1152H289.334V67.5879H285.877ZM268.698 70.1309V59.8652H279.28V70.1309H268.698ZM276.373 62.3145H271.627V67.6934H276.373V62.3145ZM271.745 80.2207V72.5098H274.698V77.748H286.51V80.2207H271.745ZM307.721 75.5801V73.9512H303.35V71.6777H307.721V58.4004H310.674V75.5801H307.721ZM299.202 67.1074C297.459 67.1074 296.045 66.7285 294.959 65.9707C293.881 65.2129 293.342 64.209 293.342 62.959C293.342 61.709 293.889 60.709 294.983 59.959C296.084 59.209 297.491 58.834 299.202 58.834C300.959 58.834 302.37 59.2051 303.432 59.9473C304.502 60.6816 305.037 61.6855 305.037 62.959C305.037 64.2168 304.491 65.2246 303.397 65.9824C302.311 66.7324 300.912 67.1074 299.202 67.1074ZM299.202 61.1074C298.303 61.1074 297.588 61.2871 297.057 61.6465C296.534 62.0059 296.272 62.4434 296.272 62.959C296.272 63.4902 296.53 63.9355 297.045 64.2949C297.561 64.6543 298.28 64.834 299.202 64.834C300.108 64.834 300.823 64.6504 301.346 64.2832C301.87 63.916 302.131 63.4746 302.131 62.959C302.131 62.4043 301.877 61.959 301.37 61.623C300.87 61.2793 300.147 61.1074 299.202 61.1074ZM306.596 70.2363C304.877 70.3535 303.159 70.4473 301.44 70.5176V75.2285H298.58V70.6348C296.01 70.7363 293.873 70.7871 292.17 70.7871L291.76 68.2441C297.276 68.2441 302.155 68.0996 306.397 67.8105L306.596 70.2363ZM295.1 80.291V73.3066H298.03V77.8184H311.225V80.291H295.1ZM342.338 66.5801V71.2207H339.42V58.4004H342.338V64.1074H345.795V66.5801H342.338ZM325.112 69.5801V59.1973H328.041V62.1152H332.987V59.1973H335.893V69.5801H325.112ZM332.987 64.5879H328.041V67.1309H332.987V64.5879ZM328.159 80.5254V72.1465H342.338V74.6426H331.088V78.0527H342.725V80.5254H328.159ZM366.338 69.5566V81.0059H363.42V58.4004H366.338V67.084H369.877V69.5566H366.338ZM360.08 75.416C357.713 73.7207 356.018 71.9199 354.995 70.0137C354.393 71.123 353.6 72.248 352.616 73.3887C351.639 74.5215 350.745 75.3418 349.932 75.8496L347.764 73.9746C349.233 73.2637 350.557 72.0527 351.737 70.3418C352.916 68.6309 353.506 66.9316 353.506 65.2441V62.7715H348.608V60.2988H361.229V62.7715H356.436V65.1738C356.436 66.7676 357.002 68.3535 358.135 69.9316C359.268 71.5098 360.565 72.6191 362.026 73.2598L360.08 75.416ZM376.194 59.6543L375.795 71.6777H373.135L372.748 59.6543H376.194ZM372.537 75.3691C372.537 74.8457 372.729 74.416 373.112 74.0801C373.495 73.7441 373.959 73.5762 374.506 73.5762C375.053 73.5762 375.51 73.752 375.877 74.1035C376.252 74.4473 376.44 74.8691 376.44 75.3691C376.44 75.877 376.256 76.3027 375.889 76.6465C375.53 76.9902 375.108 77.1621 374.623 77.1621C373.967 77.1621 373.455 76.9863 373.088 76.6348C372.721 76.2832 372.537 75.8613 372.537 75.3691Z" fill="white"/>
<path d="M33.4542 36.7031V21.6328H34.6182V36.7031H33.4542ZM30.6807 33.0234C29.7693 32.3099 28.975 31.5 28.2979 30.5938C27.6208 29.6875 27.1833 28.8724 26.9854 28.1484C26.7875 28.9193 26.337 29.7917 25.6339 30.7656C24.9307 31.7344 24.1547 32.5573 23.3057 33.2344L22.4307 32.4297C23.6234 31.612 24.5818 30.5469 25.3057 29.2344C26.0297 27.9219 26.3917 26.5938 26.3917 25.25V23.9844H23.0323V22.9453H30.9542V23.9844H27.5635V25.2031C27.5635 26.5365 27.9307 27.8516 28.6651 29.1484C29.3995 30.4453 30.3396 31.4375 31.4854 32.125L30.6807 33.0234ZM49.6104 32.6406V21.6328H50.7823V32.6406H49.6104ZM43.337 29.8594C42.212 29.8594 41.2719 29.5052 40.5167 28.7969C39.7615 28.0833 39.3839 27.1615 39.3839 26.0312C39.3839 24.8958 39.7589 23.9766 40.5089 23.2734C41.2641 22.5651 42.2068 22.2109 43.337 22.2109C44.4672 22.2109 45.4047 22.5625 46.1495 23.2656C46.8995 23.9688 47.2745 24.8906 47.2745 26.0312C47.2745 27.1615 46.8995 28.0833 46.1495 28.7969C45.3995 29.5052 44.462 29.8594 43.337 29.8594ZM43.337 23.25C42.5141 23.25 41.8448 23.5026 41.3292 24.0078C40.8135 24.513 40.5557 25.1875 40.5557 26.0312C40.5557 26.875 40.8109 27.5521 41.3214 28.0625C41.837 28.5677 42.5089 28.8203 43.337 28.8203C44.1651 28.8203 44.837 28.5677 45.3526 28.0625C45.8682 27.5521 46.126 26.875 46.126 26.0312C46.126 25.1875 45.8682 24.513 45.3526 24.0078C44.837 23.5026 44.1651 23.25 43.337 23.25ZM41.2745 36.125V31.2344H42.4464V35.0703H51.1807V36.125H41.2745ZM66.8292 28.4609C65.7562 28.2474 64.6469 27.8385 63.501 27.2344C62.3552 26.625 61.6026 26.0443 61.2432 25.4922C60.9255 26.0286 60.2406 26.5859 59.1885 27.1641C58.1417 27.7422 56.9906 28.1823 55.7354 28.4844L54.9229 27.4766C56.3344 27.3203 57.6052 26.8984 58.7354 26.2109C59.8708 25.5234 60.5036 24.7812 60.6339 23.9844H55.8057V22.9453H60.6651V21.3906H61.8526V22.9453H66.6807V23.9844H61.8526C61.9724 24.7292 62.574 25.4297 63.6573 26.0859C64.7406 26.737 66.0479 27.1875 67.5792 27.4375L66.8292 28.4609ZM61.8214 31.0703V36.6875H60.6495V31.0703H54.251V30.0312H68.2354V31.0703H61.8214ZM81.4542 32.6562V27.1016H78.0948V26.0625H81.4542V21.6328H82.6182V32.6562H81.4542ZM78.6339 30.5938C77.8839 30.2448 77.1625 29.7552 76.4698 29.125C75.7823 28.4896 75.2875 27.8802 74.9854 27.2969C74.6729 27.9688 74.1625 28.6536 73.4542 29.3516C72.751 30.0443 72.0401 30.5703 71.3214 30.9297L70.462 30.0312C71.4828 29.6771 72.3891 29.0365 73.1807 28.1094C73.9776 27.1771 74.376 26.3099 74.376 25.5078V24.4297H70.9385V23.3906H74.3917V21.6484H75.5635V23.3906H78.9854V24.4297H75.5635V25.4922C75.5635 26.2682 75.962 27.0807 76.7589 27.9297C77.5557 28.7734 78.4437 29.3411 79.4229 29.6328L78.6339 30.5938ZM73.337 36.2109V31.3438H74.5245V35.1875H83.0167V36.2109H73.337ZM99.462 30.1641V33.4062H105.86V34.4453H91.876V33.4062H98.2745V30.1641H94.1339V22.9297H95.2979V25.5391H102.439V22.9297H103.587V30.1641H99.462ZM102.439 26.5938H95.2979V29.1016H102.439V26.5938ZM119.11 36.7031V27.5078H114.259V26.4609H119.11V21.6328H120.274V36.7031H119.11ZM117.54 32.0469C117.04 32.1771 116.259 32.2682 115.196 32.3203C114.139 32.3724 112.116 32.3984 109.126 32.3984V22.7656H110.29V31.3594H111.314C114.449 31.3594 116.483 31.263 117.415 31.0703L117.54 32.0469ZM130.853 25.5547C130.478 26.3568 129.756 27.1641 128.689 27.9766C127.621 28.7839 126.48 29.3516 125.267 29.6797L124.47 28.75C126.241 28.3802 127.647 27.6693 128.689 26.6172C129.735 25.5651 130.259 24.5755 130.259 23.6484V22.8516H131.462V23.6484C131.462 24.5911 131.991 25.5781 133.048 26.6094C134.11 27.6354 135.517 28.3438 137.267 28.7344L136.439 29.6641C135.215 29.2839 134.071 28.6979 133.009 27.9062C131.952 27.1146 131.233 26.3307 130.853 25.5547ZM137.86 34.1797H123.876V33.1406H137.86V34.1797ZM157.243 36.7031V21.6328H158.415V36.7031H157.243ZM152.603 31.5547V30.5156H154.673V28.0625H152.556V27.0391H154.673V21.9375H155.821V36.2422H154.673V31.5547H152.603ZM145.532 25.6016V24.5625H148.72V22.0469H149.884V24.5625H152.985V25.6016H145.532ZM149.212 33.2188C148.28 33.2188 147.506 32.9036 146.892 32.2734C146.282 31.638 145.978 30.8333 145.978 29.8594C145.978 28.8906 146.285 28.0885 146.899 27.4531C147.514 26.8177 148.285 26.5 149.212 26.5C150.149 26.5 150.923 26.8151 151.532 27.4453C152.142 28.0703 152.446 28.875 152.446 29.8594C152.446 30.8438 152.144 31.651 151.54 32.2812C150.936 32.9062 150.16 33.2188 149.212 33.2188ZM149.212 27.5234C148.571 27.5234 148.058 27.7396 147.673 28.1719C147.293 28.599 147.103 29.1615 147.103 29.8594C147.103 30.5677 147.295 31.1354 147.681 31.5625C148.066 31.9844 148.577 32.1953 149.212 32.1953C149.853 32.1953 150.368 31.9792 150.759 31.5469C151.149 31.1146 151.345 30.5521 151.345 29.8594C151.345 29.1771 151.149 28.6172 150.759 28.1797C150.373 27.7422 149.858 27.5234 149.212 27.5234ZM173.134 30.3672V26.6562H171.376V30.3672H170.22V21.9375H171.376V25.6172H173.134V21.6328H174.298V30.3672H173.134ZM163.821 26.5312V28.5C166.181 28.5 167.86 28.4505 168.86 28.3516L168.954 29.3906C167.496 29.4896 165.394 29.5391 162.649 29.5391V22.5H168.415V23.5391H163.821V25.5234H167.931V26.5312H163.821ZM173.134 36.7031V32.2578H164.446V31.2188H174.298V36.7031H173.134ZM189.985 33.9688H183.532V32.8594H186.142V23.8203L183.462 24.6328V23.4375L187.384 22.2109V32.8594H189.985V33.9688ZM191.821 33.2812C191.821 33.0365 191.907 32.8307 192.079 32.6641C192.251 32.4922 192.452 32.4062 192.681 32.4062C192.91 32.4062 193.11 32.4922 193.282 32.6641C193.454 32.8307 193.54 33.0365 193.54 33.2812C193.54 33.5104 193.454 33.7135 193.282 33.8906C193.116 34.0625 192.915 34.1484 192.681 34.1484C192.446 34.1484 192.243 34.0651 192.071 33.8984C191.905 33.7266 191.821 33.5208 191.821 33.2812Z" fill="#FF4A00"/>
<defs>
<clipPath id="clip0">
<rect width="79.7376" height="102" fill="white" transform="translate(486.262)"/>
</clipPath>
<clipPath id="clip1">
<rect width="79.7376" height="102" fill="white" transform="translate(445.324)"/>
</clipPath>
<clipPath id="clip2">
<rect width="79.7376" height="102" fill="white" transform="translate(405.385)"/>
</clipPath>
</defs>
</svg>
