<svg width="316" height="115" viewBox="0 0 316 115" fill="none" xmlns="http://www.w3.org/2000/svg">
<mask id="mask0" mask-type="alpha" maskUnits="userSpaceOnUse" x="307" y="0" width="9" height="115">
<rect x="307" width="9" height="115" fill="#C4C4C4"/>
</mask>
<g mask="url(#mask0)">
<path fill-rule="evenodd" clip-rule="evenodd" d="M317 148.925L317 150H315.672C309.095 155.946 317 160.237 317 160.237V161.918C308.711 167.783 317 172.182 317 172.182L317 173.863C308.711 179.526 317 184.557 317 184.557V186.023C308.711 191.268 317 196.919 317 196.919V198.802C309.293 203.618 317 209.28 317 209.28V210.962C309.011 216.624 317 221.44 317 221.44V223.323C309.293 228.784 317 233.6 317 233.6V235.483C309.593 241.778 317 246.177 317 246.177V247.643C308.129 253.937 317 258.968 317 258.968V260.434C309.293 266.514 317 270.913 317 270.913V272H307V150L307 123V1H317V2.2008C308.129 7.8635 317 13.0965 317 13.0965V15.182C308.429 19.9979 317 25.2435 317 25.2435V26.9246C308.129 33.4215 317 38.2374 317 38.2374V39.9185C308.711 45.7834 317 50.1821 317 50.1821L317 51.8633C308.711 57.526 317 62.5567 317 62.5567V64.0229C308.711 69.2685 317 74.9186 317 74.9186V76.8019C309.293 81.6178 317 87.2805 317 87.2805V88.9616C309.011 94.6243 317 99.4401 317 99.4401V101.323C309.293 106.784 317 111.6 317 111.6V113.483C311.872 117.841 313.844 121.29 315.543 123H317V124.201L317 125.643C314.575 127.363 313.476 128.989 313.159 130.444C313.776 133.195 317 135.096 317 135.096V137.182L317 138.434C314.561 140.359 313.665 142.115 313.581 143.616C314.553 145.746 317 147.243 317 147.243V148.925Z" fill="#272B2E"/>
</g>
<rect x="10" y="11" width="298" height="94" fill="#272B2E"/>
<path d="M159 1H157.913C157.913 1 153.514 8.70732 147.434 1H145.968C145.968 1 140.937 9.87135 134.643 1H133.177C133.177 1 128.778 8.40749 122.483 1H120.6C120.6 1 115.784 8.70732 110.323 1H108.44C108.44 1 103.624 8.98951 97.9616 1H96.2805C96.2805 1 90.6178 8.70732 85.8019 1H83.9186C83.9186 1 78.2685 9.28934 73.0229 1H71.5567C71.5567 1 66.526 9.28934 60.8633 1H59.1821C59.1821 1 54.7834 9.28934 48.9185 1H47.2374C47.2374 1 42.4215 9.87135 35.9246 1H34.2435C34.2435 1 28.9979 9.57153 24.1821 1H22.0965C22.0965 1 16.8635 9.87135 11.2008 1H10V11.0001H159V1Z" fill="#272B2E"/>
<path d="M308 1H306.913C306.913 1 302.514 8.70732 296.434 1H294.968C294.968 1 289.937 9.87135 283.643 1H282.177C282.177 1 277.778 8.40749 271.483 1H269.6C269.6 1 264.784 8.70732 259.323 1H257.44C257.44 1 252.624 8.98951 246.962 1H245.28C245.28 1 239.618 8.70732 234.802 1H232.919C232.919 1 227.268 9.28934 222.023 1H220.557C220.557 1 215.526 9.28934 209.863 1H208.182C208.182 1 203.783 9.28934 197.918 1H196.237C196.237 1 191.422 9.87135 184.925 1H183.243C183.243 1 177.998 9.57153 173.182 1H171.096C171.096 1 165.864 9.87135 160.201 1H159V11.0001H308V1Z" fill="#272B2E"/>
<path d="M159 115L160.087 115C160.087 115 164.486 107.293 170.566 115L172.032 115C172.032 115 177.063 106.129 183.357 115L184.823 115C184.823 115 189.222 107.592 195.517 115L197.4 115C197.4 115 202.216 107.293 207.677 115L209.56 115C209.56 115 214.376 107.01 220.038 115L221.72 115C221.72 115 227.382 107.293 232.198 115L234.081 115C234.081 115 239.732 106.711 244.977 115L246.443 115C246.443 115 251.474 106.711 257.137 115L258.818 115C258.818 115 263.217 106.711 269.082 115L270.763 115C270.763 115 275.578 106.129 282.075 115L283.757 115C283.757 115 289.002 106.428 293.818 115L295.904 115C295.904 115 301.136 106.129 306.799 115L308 115L308 105L159 105L159 115Z" fill="#272B2E"/>
<path d="M10 115L11.087 115C11.087 115 15.4857 107.293 21.5656 115L23.0318 115C23.0318 115 28.0625 106.129 34.3572 115L35.8235 115C35.8235 115 40.2222 107.592 46.5169 115L48.4002 115C48.4002 115 53.2161 107.293 58.6765 115L60.5599 115C60.5599 115 65.3757 107.01 71.0384 115L72.7195 115C72.7195 115 78.3823 107.293 83.1981 115L85.0814 115C85.0814 115 90.7315 106.711 95.9771 115L97.4433 115C97.4433 115 102.474 106.711 108.137 115L109.818 115C109.818 115 114.217 106.711 120.082 115L121.763 115C121.763 115 126.578 106.129 133.075 115L134.757 115C134.757 115 140.002 106.428 144.818 115L146.904 115C146.904 115 152.136 106.129 157.799 115L159 115L159 105L10 105L10 115Z" fill="#272B2E"/>
<mask id="mask1" mask-type="alpha" maskUnits="userSpaceOnUse" x="0" y="1" width="10" height="113">
<rect y="1" width="10" height="113" fill="#C4C4C4"/>
</mask>
<g mask="url(#mask1)">
<path fill-rule="evenodd" clip-rule="evenodd" d="M0 2.08704V1H10.0001V123L10.0001 150V272H6.4373e-06L6.38481e-06 270.799C8.87136 265.137 5.90855e-06 259.904 5.90855e-06 259.904L5.81738e-06 257.818C8.57153 253.002 5.37759e-06 247.757 5.37759e-06 247.757L5.3041e-06 246.075C8.87136 239.578 4.8096e-06 234.763 4.8096e-06 234.763L4.73612e-06 233.082C8.28934 227.217 4.28748e-06 222.818 4.28748e-06 222.818L4.214e-06 221.137C8.28934 215.474 3.74657e-06 210.443 3.74657e-06 210.443L3.68249e-06 208.977C8.28934 203.732 3.20622e-06 198.081 3.20622e-06 198.081L3.1239e-06 196.198C7.70732 191.382 2.66586e-06 185.72 2.66586e-06 185.72L2.59238e-06 184.038C7.98951 178.376 2.13435e-06 173.56 2.13435e-06 173.56L2.05202e-06 171.677C7.70732 166.216 0 161.4 0 161.4V159.517C5.12816 155.159 3.15593 151.71 1.45665 150H6.513e-06L0 148.823V147.357C2.42472 145.637 3.52399 144.011 3.84122 142.556C3.22362 139.805 5.98424e-06 137.904 5.98424e-06 137.904L0 136.032V134.566C2.43959 132.641 3.33478 130.885 3.41883 129.384C2.44726 127.254 5.45328e-06 125.757 5.45328e-06 125.757L0 124.087V123H1.32847C7.90533 117.054 4.8853e-06 112.763 4.8853e-06 112.763L4.81182e-06 111.082C8.28934 105.217 4.36318e-06 100.818 4.36318e-06 100.818L4.28969e-06 99.1367C8.28934 93.474 3.82227e-06 88.4433 3.82227e-06 88.4433L3.75818e-06 86.9771C8.28934 81.7315 3.28192e-06 76.0814 3.28192e-06 76.0814L3.19959e-06 74.1981C7.70732 69.3822 2.74156e-06 63.7195 2.74156e-06 63.7195L2.66807e-06 62.0384C7.98951 56.3757 2.21004e-06 51.5599 2.21004e-06 51.5599L2.12772e-06 49.6765C7.70732 44.2161 0 39.4002 0 39.4002V37.5169C7.40749 31.2222 0 26.8235 0 26.8235V25.3572C8.87136 19.0625 0 14.0318 0 14.0318V12.5656C7.70732 6.48574 0 2.08704 0 2.08704Z" fill="#272B2E"/>
</g>
</svg>
