<svg width="388" height="62" viewBox="0 0 388 62" fill="none" xmlns="http://www.w3.org/2000/svg">
<rect y="8" width="388" height="54" fill="#3D4147"/>
<mask id="mask0" style="mask-type:alpha" maskUnits="userSpaceOnUse" x="0" y="0" width="388" height="29">
<rect width="388" height="29" fill="#4775BA"/>
</mask>
<g mask="url(#mask0)">
<path d="M174.832 0H173.549C173.549 0 168.354 7.70732 161.174 0H159.442C159.442 0 153.501 8.87135 146.067 0H144.336C144.336 0 139.141 7.40749 131.707 0H129.483C129.483 0 123.796 7.70732 117.347 0H115.123C115.123 0 109.435 7.98951 102.748 0H100.763C100.763 0 94.0752 7.70732 88.3878 0H86.1636C86.1636 0 79.4911 8.28934 73.2962 0H71.5646C71.5646 0 65.6235 8.28934 58.9361 0H56.9507C56.9507 0 51.756 8.28934 44.8297 0H42.8443C42.8443 0 37.157 8.87135 29.4843 0H27.4989C27.4989 0 21.3041 8.57153 15.6167 0H13.1537C13.1537 0 6.97375 8.87135 0.286268 0H-1.13184V10.0001H174.832V0Z" fill="#3D4147"/>
<path d="M350.797 0H349.513C349.513 0 344.318 7.70732 337.138 0H335.406C335.406 0 329.465 8.87135 322.031 0H320.3C320.3 0 315.105 7.40749 307.671 0H305.447C305.447 0 299.76 7.70732 293.311 0H291.087C291.087 0 285.4 7.98951 278.712 0H276.727C276.727 0 270.039 7.70732 264.352 0H262.128C262.128 0 255.455 8.28934 249.26 0H247.529C247.529 0 241.588 8.28934 234.9 0H232.915C232.915 0 227.72 8.28934 220.794 0H218.808C218.808 0 213.121 8.87135 205.448 0H203.463C203.463 0 197.268 8.57153 191.581 0H189.118C189.118 0 182.938 8.87135 176.25 0H174.832V10.0001H350.797V0Z" fill="#3D4147"/>
<path d="M526.761 0H525.477C525.477 0 520.282 7.70732 513.102 0H511.371C511.371 0 505.43 8.87135 497.996 0H496.264C496.264 0 491.069 7.40749 483.636 0H481.411C481.411 0 475.724 7.70732 469.275 0H467.051C467.051 0 461.364 7.98951 454.676 0H452.691C452.691 0 446.004 7.70732 440.316 0H438.092C438.092 0 431.42 8.28934 425.225 0H423.493C423.493 0 417.552 8.28934 410.865 0H408.879C408.879 0 403.684 8.28934 396.758 0H394.773C394.773 0 389.085 8.87135 381.413 0H379.427C379.427 0 373.233 8.57153 367.545 0H365.082C365.082 0 358.902 8.87135 352.215 0H350.797V10.0001H526.761V0Z" fill="#3D4147"/>
</g>
</svg>
