<svg width="28" height="20" viewBox="0 0 28 20" fill="none" xmlns="http://www.w3.org/2000/svg">
<path d="M18.455 0H14.0009H9.54631L5.97266 1.19558V4.47779H14.0009H22.0287V1.19558L18.455 0Z" fill="#FFDD50"/>
<path d="M22.028 1.19531L18.4544 2.55546L14.0003 2.83642L9.54563 2.55546L5.97198 1.19531L0 8.27599L14.0003 19.9985L28 8.27599L22.028 1.19531Z" fill="#E59900"/>
<path opacity="0.38" d="M9.54688 2.55664L9.75481 10.0537H14.0015V2.8376L9.54688 2.55664Z" fill="white"/>
<path opacity="0.38" d="M11.9726 15.2483L3.47656 8.83841L5.97283 1.19531L8.04537 9.90154L11.9726 15.2483Z" fill="white"/>
<path opacity="0.38" d="M14.0024 2.83594L9.98828 10.182H14.0024V2.83594Z" fill="white"/>
<path opacity="0.38" d="M27.9997 8.27599L18.2462 10.0526H14V2.83642L18.4541 2.55546L22.0278 1.19531L27.9997 8.27599Z" fill="white"/>
<path opacity="0.38" d="M18.4541 2.55664L18.2462 10.0537H14V2.8376L18.4541 2.55664Z" fill="white"/>
<path opacity="0.38" d="M16.0273 15.2483L24.5239 8.83841L22.0271 1.19531L19.9551 9.90154L16.0273 15.2483Z" fill="white"/>
<path opacity="0.38" d="M14 2.83594L18.0136 10.182H14V2.83594Z" fill="white"/>
<path opacity="0.3" d="M13.9991 2.83667L11.5442 2.68164L9.13281 10.1828L13.9991 19.9988L18.2453 10.0533L16.0271 2.70873L13.9991 2.83667Z" fill="white"/>
<path opacity="0.46" d="M14.002 2.83594L11.832 10.037L14.002 19.998L15.8991 10.037L14.002 2.83594Z" fill="white"/>
<path opacity="0.2" d="M3.47656 8.83841L5.97283 1.19531L14.0011 19.9985L3.47656 8.83841Z" fill="white"/>
<path opacity="0.54" d="M0 8.27599L9.75357 10.0526H14.0003V2.83642L9.54563 2.55546L5.97198 1.19531L0 8.27599Z" fill="white"/>
<path opacity="0.5" d="M0 8.27599L14.0003 19.9985L9.89813 10.3912L14.0003 10.0526H9.75357L9.54563 2.63824L9.12138 9.83883L3.47571 8.83841L5.97198 1.19531L3.05146 8.65077L0 8.27599Z" fill="white"/>
<path opacity="0.2" d="M24.5246 8.83841L22.0278 1.19531L14 19.9985L24.5246 8.83841Z" fill="white"/>
<path opacity="0.5" d="M27.9997 8.27599L24.3611 9.33862L18.1016 10.3912L14 10.0526H18.2462L18.4541 2.55546L18.8784 9.83883L24.5246 8.83841L22.0278 1.19531L24.9488 8.65077L27.9997 8.27599Z" fill="white"/>
<path d="M5.10673 9.4305L7.54853 1.79492L4.13672 9.1084L13.8662 19.6795L5.10673 9.4305Z" fill="white"/>
<path opacity="0.34" d="M9.54672 2.64258L6.64453 9.57726L13.8646 19.6833L9.81017 10.1868L9.54672 2.64258Z" fill="white"/>
<path d="M5.97266 1.19531L9.54631 2.83642L14.0009 3.04513L18.4629 2.68139L22.0287 1.19531L18.3702 2.40143L14.0009 2.77671L9.54631 2.55546L5.97266 1.19531Z" fill="white"/>
<path opacity="0.34" d="M18.4537 0L17.3611 2.62998L13.9995 2.77698L11.0366 2.68166L9.54492 0H18.4537Z" fill="white"/>
<path opacity="0.34" d="M9.54631 2.63851L18.455 0H9.54631L5.97266 1.19558L9.54631 2.63851Z" fill="white"/>
<path opacity="0.34" d="M22.0287 1.19558H5.97266L9.54631 0H18.455L22.0287 1.19558Z" fill="white"/>
<path d="M5.93751 1.27344L0.726562 8.36616L2.68283 8.68826L5.93751 1.27344Z" fill="white"/>
<path d="M3.91499 4.66602L2.05405 8.55329L1.49414 8.45947L3.91499 4.66602Z" fill="white"/>
<path opacity="0.49" d="M14.0015 3.04297L13.8648 19.6768L9.54688 10.3891L14.0015 3.04297Z" fill="white"/>
<path d="M12.9402 9.50057L9.28323 9.8583L0 8.27539L9.54563 10.5963H18.0139L23.2762 9.43585L17.9432 10.052L12.9402 9.50057Z" fill="white"/>
</svg>
