<svg width="28" height="20" viewBox="0 0 28 20" fill="none" xmlns="http://www.w3.org/2000/svg">
<path d="M18.4549 0H14.0009H9.54627L5.97266 1.19617V4.47863H14.0009H22.0285V1.19617L18.4549 0Z" fill="#42EAFC"/>
<path d="M22.0278 1.19531L18.4542 2.55506L14.0001 2.83654L9.54554 2.55506L5.97192 1.19531L0 8.27602L14.0001 19.9994L27.9997 8.27602L22.0278 1.19531Z" fill="#2D8BA2"/>
<path opacity="0.38" d="M9.54688 2.55664L9.75481 10.0548H14.0015V2.83812L9.54688 2.55664Z" fill="white"/>
<path opacity="0.38" d="M11.9725 15.2488L3.47656 8.83898L5.9728 1.19531L8.04533 9.90169L11.9725 15.2488Z" fill="white"/>
<path opacity="0.38" d="M14.0004 2.83789L9.98633 10.1845H14.0004V2.83789Z" fill="white"/>
<path opacity="0.38" d="M27.9996 8.27602L18.2461 10.0532H14V2.83654L18.4541 2.55506L22.0277 1.19531L27.9996 8.27602Z" fill="white"/>
<path opacity="0.38" d="M18.4541 2.55664L18.2461 10.0548H14V2.83812L18.4541 2.55664Z" fill="white"/>
<path opacity="0.38" d="M16.0273 15.2488L24.5238 8.83898L22.027 1.19531L19.955 9.90169L16.0273 15.2488Z" fill="white"/>
<path opacity="0.38" d="M14 2.83789L18.0136 10.1845H14V2.83789Z" fill="white"/>
<path opacity="0.3" d="M13.9991 2.83668L11.5442 2.68164L9.13281 10.1833L13.9991 19.9996L18.2452 10.0534L16.0271 2.70823L13.9991 2.83668Z" fill="white"/>
<path opacity="0.46" d="M14 2.83789L11.8301 10.039L14 20.0008L15.8971 10.039L14 2.83789Z" fill="white"/>
<path opacity="0.2" d="M3.47656 8.83898L5.9728 1.19531L14.001 19.9994L3.47656 8.83898Z" fill="white"/>
<path opacity="0.54" d="M0 8.27602L9.75347 10.0532H14.0001V2.83654L9.54554 2.55506L5.97192 1.19531L0 8.27602Z" fill="white"/>
<path opacity="0.5" d="M0 8.27602L14.0001 19.9994L9.89803 10.3914L14.0001 10.0532H9.75347L9.54554 2.63835L9.12129 9.83897L3.47568 8.83898L5.97192 1.19531L3.05143 8.65133L0 8.27602Z" fill="white"/>
<path opacity="0.2" d="M24.5244 8.83898L22.0277 1.19531L14 19.9994L24.5244 8.83898Z" fill="white"/>
<path opacity="0.5" d="M27.9996 8.27602L24.361 9.33923L18.1016 10.3914L14 10.0532H18.2461L18.4541 2.55506L18.8783 9.83897L24.5244 8.83898L22.0277 1.19531L24.9487 8.65133L27.9996 8.27602Z" fill="white"/>
<path d="M5.10282 9.43107L7.54459 1.79492L4.13281 9.10944L13.8622 19.6813L5.10282 9.43107Z" fill="white"/>
<path opacity="0.34" d="M9.54474 2.63867L6.64258 9.57337L13.8626 19.6806L9.80819 10.1835L9.54474 2.63867Z" fill="white"/>
<path d="M5.97266 1.19531L9.54627 2.83654L14.0009 3.04477L18.4628 2.6815L22.0285 1.19531L18.3701 2.40152L14.0009 2.77683L9.54627 2.55506L5.97266 1.19531Z" fill="white"/>
<path opacity="0.34" d="M18.4536 0L17.361 2.63018L13.9995 2.77769L11.0366 2.68236L9.54492 0H18.4536Z" fill="white"/>
<path opacity="0.34" d="M9.54627 2.63921L18.4549 0H9.54627L5.97266 1.19617L9.54627 2.63921Z" fill="white"/>
<path opacity="0.34" d="M22.0285 1.19617H5.97266L9.54627 0H18.4549L22.0285 1.19617Z" fill="white"/>
<path d="M5.93746 1.27344L0.726562 8.36619L2.68281 8.68831L5.93746 1.27344Z" fill="white"/>
<path d="M3.91301 4.66602L2.05209 8.55358L1.49219 8.45975L3.91301 4.66602Z" fill="white"/>
<path opacity="0.49" d="M14.0015 3.04492L13.8648 19.6805L9.54688 10.3916L14.0015 3.04492Z" fill="white"/>
<path d="M12.94 9.50117L9.28313 9.85841L0 8.27539L9.54554 10.5965H18.0137L23.2759 9.43594L17.943 10.0526L12.94 9.50117Z" fill="white"/>
</svg>
