<svg width="28" height="21" viewBox="0 0 28 21" fill="none" xmlns="http://www.w3.org/2000/svg">
<path d="M18.4549 0H14.0009H9.54628L5.97266 1.25537V4.70171H14.0009H22.0286V1.25537L18.4549 0Z" fill="url(#paint0_linear)"/>
<path d="M22.0278 1.25391L18.4542 2.68207L14.0001 2.97707L9.54556 2.68207L5.97193 1.25391L0 8.68866L14.0001 20.9974L27.9998 8.68866L22.0278 1.25391Z" fill="url(#paint1_linear)"/>
<path opacity="0.38" d="M9.54492 2.68359L9.75286 10.5556H13.9995V2.9786L9.54492 2.68359Z" fill="white"/>
<path opacity="0.38" d="M11.9725 16.0096L3.47656 9.2792L5.97281 1.25391L8.04534 10.3955L11.9725 16.0096Z" fill="white"/>
<path opacity="0.38" d="M14.0004 2.97852L9.98633 10.692H14.0004V2.97852Z" fill="white"/>
<path opacity="0.38" d="M27.9996 8.68866L18.2461 10.5541H14V2.97708L18.4541 2.68207L22.0277 1.25391L27.9996 8.68866Z" fill="white"/>
<path opacity="0.38" d="M18.4541 2.68359L18.2461 10.5556H14V2.9786L18.4541 2.68359Z" fill="white"/>
<path opacity="0.38" d="M16.0293 16.0096L24.5258 9.2792L22.029 1.25391L19.957 10.3955L16.0293 16.0096Z" fill="white"/>
<path opacity="0.38" d="M14 2.97852L18.0136 10.692H14V2.97852Z" fill="white"/>
<path opacity="0.3" d="M14.001 2.97919L11.5462 2.81641L9.13477 10.6926L14.001 20.9995L18.2472 10.5567L16.029 2.84485L14.001 2.97919Z" fill="white"/>
<path opacity="0.46" d="M14 2.97852L11.8301 10.5397L14 20.9988L15.8971 10.5397L14 2.97852Z" fill="white"/>
<path opacity="0.2" d="M3.47656 9.2792L5.97281 1.25391L14.001 20.9974L3.47656 9.2792Z" fill="white"/>
<path opacity="0.54" d="M0 8.68866L9.75349 10.5541H14.0001V2.97708L9.54556 2.68207L5.97193 1.25391L0 8.68866Z" fill="white"/>
<path opacity="0.5" d="M0 8.68866L14.0001 20.9974L9.89805 10.9097L14.0001 10.5541H9.75349L9.54556 2.76899L9.12131 10.3296L3.47568 9.2792L5.97193 1.25391L3.05144 9.08218L0 8.68866Z" fill="white"/>
<path opacity="0.2" d="M24.5245 9.2792L22.0277 1.25391L14 20.9974L24.5245 9.2792Z" fill="white"/>
<path opacity="0.5" d="M27.9996 8.68866L24.3611 9.80442L18.1016 10.9097L14 10.5541H18.2461L18.4541 2.68207L18.8783 10.3296L24.5245 9.2792L22.0277 1.25391L24.9487 9.08218L27.9996 8.68866Z" fill="white"/>
<path d="M5.10477 9.90216L7.54655 1.88477L4.13477 9.56396L13.8642 20.6637L5.10477 9.90216Z" fill="white"/>
<path opacity="0.34" d="M9.5467 2.77148L6.64453 10.0529L13.8646 20.6643L9.81015 10.693L9.5467 2.77148Z" fill="white"/>
<path opacity="0.5" d="M5.97266 1.25391L9.54628 2.97707L14.0009 3.19622L18.4628 2.81429L22.0286 1.25391L18.3701 2.52034L14.0009 2.91439L9.54628 2.68207L5.97266 1.25391Z" fill="white"/>
<path opacity="0.34" d="M18.4536 0L17.361 2.76149L13.9995 2.91585L11.0366 2.81575L9.54492 0H18.4536Z" fill="white"/>
<path opacity="0.34" d="M9.54628 2.77045L18.4549 0H9.54628L5.97266 1.25537L9.54628 2.77045Z" fill="white"/>
<path opacity="0.34" d="M22.0286 1.25537H5.97266L9.54628 0H18.4549L22.0286 1.25537Z" fill="#FFB8FD"/>
<path d="M5.93551 1.33789L0.724609 8.78529L2.68086 9.1235L5.93551 1.33789Z" fill="white"/>
<path d="M3.91301 4.90039L2.05209 8.98205L1.49219 8.88354L3.91301 4.90039Z" fill="white"/>
<path opacity="0.49" d="M13.9995 3.19727L13.8628 20.6629L9.54492 10.9107L13.9995 3.19727Z" fill="#FFD7FF"/>
<path d="M12.9401 9.9759L9.28315 10.3515L0 8.68945L9.54556 11.1264H18.0137L23.276 9.90795L17.943 10.5549L12.9401 9.9759Z" fill="white"/>
<defs>
<linearGradient id="paint0_linear" x1="5.97272" y1="2.35097" x2="22.0286" y2="2.35097" gradientUnits="userSpaceOnUse">
<stop stop-color="#BB132C"/>
<stop offset="1" stop-color="#FF87AE"/>
</linearGradient>
<linearGradient id="paint1_linear" x1="0" y1="11.1256" x2="27.9999" y2="11.1256" gradientUnits="userSpaceOnUse">
<stop stop-color="#BB132C"/>
<stop offset="1" stop-color="#FF87AE"/>
</linearGradient>
</defs>
</svg>
