<svg width="28" height="22" viewBox="0 0 28 22" fill="none" xmlns="http://www.w3.org/2000/svg">
<path d="M18.455 0.931641H14.0009H9.54631L5.97266 2.1803V5.60677H14.0009H22.0287V2.1803L18.455 0.931641Z" fill="url(#paint0_linear)"/>
<path d="M22.028 2.17969L18.4544 3.59909L14.0003 3.89293L9.54563 3.59909L5.97198 2.17969L0 9.57107L14.0003 21.8089L28 9.57107L22.028 2.17969Z" fill="url(#paint1_linear)"/>
<path opacity="0.38" d="M9.54492 3.59961L9.75286 11.4268H13.9995V3.89344L9.54492 3.59961Z" fill="white"/>
<path opacity="0.38" d="M11.9726 16.8498L3.47656 10.1587L5.97283 2.17969L8.04537 11.2681L11.9726 16.8498Z" fill="white"/>
<path opacity="0.38" d="M14.0005 3.89258L9.98633 11.5616H14.0005V3.89258Z" fill="white"/>
<path opacity="0.38" d="M27.9997 9.57107L18.2462 11.4263H14V3.89293L18.4541 3.59909L22.0278 2.17969L27.9997 9.57107Z" fill="white"/>
<path opacity="0.38" d="M18.4541 3.59961L18.2462 11.4268H14V3.89344L18.4541 3.59961Z" fill="white"/>
<path opacity="0.38" d="M16.0293 16.8498L24.5258 10.1587L22.029 2.17969L19.957 11.2681L16.0293 16.8498Z" fill="white"/>
<path opacity="0.38" d="M14 3.89258L18.0136 11.5616H14V3.89258Z" fill="white"/>
<path opacity="0.3" d="M14.0011 3.89427L11.5462 3.73242L9.13477 11.5632L14.0011 21.8102L18.2472 11.4276L16.0291 3.76018L14.0011 3.89427Z" fill="white"/>
<path opacity="0.34" d="M14 3.89258L11.8301 11.4097L14 21.8085L15.8971 11.4097L14 3.89258Z" fill="white"/>
<path opacity="0.2" d="M3.47656 10.1587L5.97283 2.17969L14.0011 21.8089L3.47656 10.1587Z" fill="white"/>
<path opacity="0.54" d="M0 9.57107L9.75357 11.4263H14.0003V3.89293L9.54563 3.59909L5.97198 2.17969L0 9.57107Z" fill="white"/>
<path opacity="0.5" d="M0 9.57107L14.0003 21.8089L9.89813 11.7793L14.0003 11.4262H9.75357L9.54563 3.68604L9.12138 11.2026L3.47571 10.1587L5.97198 2.17969L3.05146 9.96285L0 9.57107Z" fill="white"/>
<path opacity="0.2" d="M24.5246 10.1587L22.0278 2.17969L14 21.8089L24.5246 10.1587Z" fill="white"/>
<path opacity="0.5" d="M27.9997 9.57107L24.3611 10.6809L18.1016 11.7793L14 11.4263H18.2462L18.4541 3.59909L18.8784 11.2026L24.5246 10.1587L22.0278 2.17969L24.9488 9.96285L27.9997 9.57107Z" fill="white"/>
<path d="M5.10478 10.7759L7.54658 2.80469L4.13477 10.4401L13.8642 21.4759L5.10478 10.7759Z" fill="white"/>
<path opacity="0.34" d="M9.54672 3.6875L6.64453 10.9265L13.8646 21.4772L9.81017 11.5634L9.54672 3.6875Z" fill="white"/>
<path d="M5.97266 2.17969L9.54631 3.89293L14.0009 4.11029L18.4629 3.73108L22.0287 2.17969L18.3702 3.43882L14.0009 3.8306L9.54631 3.59909L5.97266 2.17969Z" fill="white"/>
<path opacity="0.34" d="M18.4537 0.931641L17.3611 3.67722L13.9995 3.83121L11.0366 3.73169L9.54492 0.931641H18.4537Z" fill="white"/>
<path opacity="0.34" d="M9.54631 3.68665L18.455 0.931641H9.54631L5.97266 2.1803L9.54631 3.68665Z" fill="white"/>
<path opacity="0.34" d="M22.0287 2.1803H5.97266L9.54631 0.931641H18.455L22.0287 2.1803Z" fill="white"/>
<path d="M5.93556 2.26172L0.724609 9.66567L2.68087 10.0019L5.93556 2.26172Z" fill="white"/>
<path d="M3.91499 5.80469L2.05405 9.86283L1.49414 9.76488L3.91499 5.80469Z" fill="white"/>
<path opacity="0.49" d="M13.9995 4.11133L13.8628 21.4768L9.54492 11.7803L13.9995 4.11133Z" fill="white"/>
<path d="M12.9402 10.8518L9.28323 11.2247L0 9.57227L9.54563 11.9952H18.0139L23.2762 10.7837L17.9432 11.4274L12.9402 10.8518Z" fill="white"/>
<defs>
<linearGradient id="paint0_linear" x1="5.97273" y1="3.26926" x2="22.0287" y2="3.26926" gradientUnits="userSpaceOnUse">
<stop stop-color="#4F9A4F"/>
<stop offset="0.4485" stop-color="#16AA00"/>
<stop offset="1" stop-color="#81D400"/>
</linearGradient>
<linearGradient id="paint1_linear" x1="19.0955" y1="22.5715" x2="11.11" y2="2.19748" gradientUnits="userSpaceOnUse">
<stop stop-color="#4F9A4F"/>
<stop offset="0.4485" stop-color="#16AA00"/>
<stop offset="1" stop-color="#81D400"/>
</linearGradient>
</defs>
</svg>
