<svg width="28" height="20" viewBox="0 0 28 20" fill="none" xmlns="http://www.w3.org/2000/svg">
<path d="M18.455 0H14.0009H9.54631L5.97266 1.19565V4.47803H14.0009H22.0287V1.19565L18.455 0Z" fill="url(#paint0_linear)"/>
<path d="M22.028 1.19531L18.4544 2.55553L14.0003 2.8365L9.54563 2.55553L5.97198 1.19531L0 8.27637L14.0003 19.9995L28 8.27637L22.028 1.19531Z" fill="url(#paint1_linear)"/>
<path opacity="0.38" d="M9.54688 2.55664L9.75481 10.0541H14.0015V2.83761L9.54688 2.55664Z" fill="white"/>
<path opacity="0.38" d="M11.9726 15.249L3.47656 8.83882L5.97283 1.19531L8.04537 9.902L11.9726 15.249Z" fill="white"/>
<path opacity="0.38" d="M14.0005 2.83789L9.98633 10.1844H14.0005V2.83789Z" fill="white"/>
<path opacity="0.38" d="M27.9997 8.27637L18.2462 10.053H14V2.8365L18.4541 2.55553L22.0278 1.19531L27.9997 8.27637Z" fill="white"/>
<path opacity="0.38" d="M18.4541 2.55664L18.2462 10.0541H14V2.83761L18.4541 2.55664Z" fill="white"/>
<path opacity="0.38" d="M16.0273 15.249L24.5239 8.83882L22.0271 1.19531L19.9551 9.902L16.0273 15.249Z" fill="white"/>
<path opacity="0.38" d="M14 2.83789L18.0136 10.1844H14V2.83789Z" fill="white"/>
<path opacity="0.3" d="M13.9991 2.83668L11.5442 2.68164L9.13281 10.1832L13.9991 19.9997L18.2453 10.0537L16.0271 2.70873L13.9991 2.83668Z" fill="white"/>
<path opacity="0.34" d="M14 2.83789L11.8301 10.0394L14 20.0009L15.8971 10.0394L14 2.83789Z" fill="white"/>
<path opacity="0.2" d="M3.47656 8.83882L5.97283 1.19531L14.0011 19.9995L3.47656 8.83882Z" fill="white"/>
<path opacity="0.54" d="M0 8.27637L9.75356 10.053H14.0003V2.8365L9.54563 2.55553L5.97198 1.19531L0 8.27637Z" fill="white"/>
<path opacity="0.5" d="M0 8.27637L14.0003 19.9995L9.89812 10.3917L14.0003 10.053H9.75356L9.54563 2.63832L9.12138 9.83929L3.47571 8.83882L5.97198 1.19531L3.05146 8.65117L0 8.27637Z" fill="white"/>
<path opacity="0.2" d="M24.5245 8.83882L22.0278 1.19531L14 19.9995L24.5245 8.83882Z" fill="white"/>
<path opacity="0.5" d="M27.9997 8.27637L24.3611 9.33905L18.1016 10.3917L14 10.053H18.2462L18.4541 2.55553L18.8784 9.83929L24.5245 8.83882L22.0278 1.19531L24.9488 8.65117L27.9997 8.27637Z" fill="white"/>
<path d="M5.10283 9.4309L7.54462 1.79492L4.13281 9.10878L13.8623 19.6804L5.10283 9.4309Z" fill="white"/>
<path opacity="0.34" d="M9.54476 2.63867L6.64258 9.57372L13.8627 19.6803L9.80822 10.1833L9.54476 2.63867Z" fill="white"/>
<path d="M5.97266 1.19531L9.54631 2.8365L14.0009 3.04523L18.4629 2.68147L22.0287 1.19531L18.3702 2.40149L14.0009 2.7768L9.54631 2.55553L5.97266 1.19531Z" fill="white"/>
<path opacity="0.34" d="M18.4537 0L17.3611 2.63012L13.9995 2.77713L11.0366 2.6818L9.54492 0H18.4537Z" fill="white"/>
<path opacity="0.34" d="M9.54631 2.63865L18.455 0H9.54631L5.97266 1.19565L9.54631 2.63865Z" fill="white"/>
<path opacity="0.34" d="M22.0287 1.19565H5.97266L9.54631 0H18.455L22.0287 1.19565Z" fill="white"/>
<path d="M5.93751 1.27344L0.726562 8.36653L2.68283 8.68865L5.93751 1.27344Z" fill="white"/>
<path d="M3.91499 4.66797L2.05405 8.55545L1.49414 8.46162L3.91499 4.66797Z" fill="white"/>
<path opacity="0.49" d="M14.0015 3.04688L13.8648 19.6816L9.54688 10.3933L14.0015 3.04688Z" fill="white"/>
<path d="M12.9402 9.50259L9.28322 9.86033L0 8.27734L9.54563 10.5984H18.0139L23.2761 9.43787L17.9432 10.054L12.9402 9.50259Z" fill="white"/>
<defs>
<linearGradient id="paint0_linear" x1="7.07563" y1="-4.85127" x2="17.7935" y2="8.11536" gradientUnits="userSpaceOnUse">
<stop stop-color="#1D0BA9"/>
<stop offset="0.3067" stop-color="#B338BE"/>
<stop offset="0.6057" stop-color="#98FCC8"/>
<stop offset="1" stop-color="#6679DC"/>
</linearGradient>
<linearGradient id="paint1_linear" x1="18.4108" y1="20.0984" x2="11.567" y2="0.108831" gradientUnits="userSpaceOnUse">
<stop stop-color="#1D0BA9"/>
<stop offset="0.3067" stop-color="#B338BE"/>
<stop offset="0.6057" stop-color="#98FCC8"/>
<stop offset="1" stop-color="#6679DC"/>
</linearGradient>
</defs>
</svg>
