<?xml version="1.0" encoding="utf-8"?>
<!-- Generator: Adobe Illustrator 22.1.0, SVG Export Plug-In . SVG Version: 6.00 Build 0)  -->
<svg version="1.1" id="Layer_1" xmlns="http://www.w3.org/2000/svg" xmlns:xlink="http://www.w3.org/1999/xlink" x="0px" y="0px"
	 viewBox="0 0 80 64" style="enable-background:new 0 0 80 64;" xml:space="preserve">
<style type="text/css">
	.st0{fill:#FACF0C;}
</style>
<g>
	<path class="st0" d="M36.0745277,47.4805908c0,0-1.3400269,7.2280273-10.2090435,5.8909912
		c0,0,7.5010357,3.9910278,14.5670147,3.6660156c0,0-1.6140137-3.5750122,0.1310425-7.5120239
		C40.5635414,49.5255737,34.7935219,54.3005981,36.0745277,47.4805908z"/>
	<path class="st0" d="M55.090519,41.6306152c0,0,11.2406044,10.4558105,17.1546059-12.3547363
		c0.0162964-1.2088013,0.0337524-2.0848389,0.0339966-2.0946655c-1.2201538,3.6627197-3.9042358,9.4743042-9.2084999,12.3613892
		c0,0,7.1338539-4.9390259,11.2319374-24.7196655C73.5572586,10.8322754,70.599678,4.7886963,59.5394936,4.5966187
		c0,0-0.6759644-0.1780396-3.4370117-2.2460327c-2.7589722-2.072998-8.8779907-3.8640137-15.3129883,0.6929932
		c-6.4329834,4.5499878-4.6300049-1.2479858-12.5490093,1.0549927c-7.9199829,2.2969971-4.8769531,4.6870117-10.5289917,5.3519897
		c-5.599,0.65802-13.9140024,0.0670166-13.6430063,10.4030151c-0.0039673-0.0479736-0.0019531-0.0249634-0.0019531,0.0010376
		c-0.007019,0.0079956-6.3389893,6.6739502-1.6920166,19.190979c0,0-0.7219849-6.3619995,1.572998-9.0540161
		c0,0-0.848999,18.3660278,5.3150024,21.7479858c6.1669922,3.3810425,9.0949717-2.6369629,9.5390024-5.3849487
		c0,0-5.4899912,0.8989868-7.671998-2.3080444c0,0,7.5339975,2.901001,8.4249887-5.7769775
		c0.8939819-8.6740112,2.1929932-18.1669922-0.757019-24.0690308c0,0,1.8470459,3.3060303,4.7750244-0.5119629
		c0,0-2.835022,19.3099976-2.2940063,27.8850098c0.5390015,8.5739746,5.7399902,9.6389771,8.9589844,8.3959961
		c3.222044-1.2420044,5.1190166-4.5350342,4.6409893-7.8850098c0,0-2.8019409,3.9279785-7.0169659,3.2839966
		c0,0,5.3619976-3.9240112,6.1539898-6.4349976c0,0-2.1140118,3.1640015-6.4840069,1.8759766
		c0,0,3.9349976-0.940979,5.8460064-5.3169556c0,0,1.5490112-7.8850098,1.9130249-14.5339966
		c0.3590088-6.6500244-0.0320435-11.401001-1.1810303-13.9850464c0,0,3.3989868,3.3309937,7.2210083,0.1069946
		c0,0-4.6599731,16.5900269-4.9299927,26.2580566c-0.2700195,9.6729736,2.7109985,12.8379517,8.2919922,12.75
		c5.2379761-0.0870361,7.2789917-4.6210327,7.03302-10.0110474c-1.4509888,2.0580444-3.835022,3.9000244-7.7739868,4.4490356
		c0,0,5.6599731-3.06604,9.8279419-15.0240479c0.9940186-5.3999634,1.848999-12.0959473,1.3040161-17.3509521
		c0,0,2.7919922,4.1969604,7.4000244,2.0839844C62.4835243,10.2355957,50.3485146,27.9746094,55.090519,41.6306152z"/>
	<path class="st0" d="M48.533329,57.5343018c0,0,3.4400024,1.0410156,6.4040527,0.7609863
		c2.9629517-0.2789917,2.9699707-4.3880005,2.9699707-4.3880005S54.7753334,58.7072754,48.533329,57.5343018z"/>
	<path class="st0" d="M70.045311,62.6024399c0.0934753-0.0292587,0.1726913-0.0593338,0.265625-0.0906219
		c3.5103226-1.1818542,6.6155624-3.8332748,8.0605927-9.1222305c2.4289551-8.8789673-6.5300293-11.2039795-6.5300293-11.2039795
		c5.7810059,5.3640137,3.4550171,9.7579956,3.4550171,9.7579956c-7.7479858-8.7680054-24.0620155-10.4570312-29.6829872-4.5469971
		c-5.6210327,5.9119873-0.309021,11.4290161-0.309021,11.4290161h-0.0180054h-0.0009766l0.0006104,0.000061l6.9379883,2.1450195
		c7.7194138,3.3579407,13.4938927,3.0670776,17.527668,1.7230835L70.045311,62.6024399z M56.3323402,59.1533203
		c-4.1289673,1.1369629-10.375-1.802002-10.375-1.802002c1.9960327-2.8309937,0.7040405-8.1090088,0.7040405-8.1090088
		c3.2290039-0.7810059,1.7209473,2.565979,6.2030029,3.7000122c4.4859619,1.1339722,5.9920044-3.460022,5.9920044-3.460022
		C61.0313759,52.1983032,60.4623451,58.0203247,56.3323402,59.1533203z M60.5569496,60.5072021
		c0,0,3.4639931-5.1829834,1.1809692-10.0839844c0,0,2.7479897,2.9959717,2.5430336,6.4519653
		c-0.2040405,3.4520264,7.6559448,1.9460449,9.8269653-2.6640015
		C74.1079178,54.2111816,74.6948929,64.4882202,60.5569496,60.5072021z"/>
</g>
</svg>
