<svg width="330" height="10" viewBox="0 0 330 10" fill="none" xmlns="http://www.w3.org/2000/svg">
<path d="M148.548 0H147.465C147.465 0 143.079 7.70732 137.018 0H135.556C135.556 0 130.541 8.87135 124.265 0H122.803C122.803 0 118.418 7.40749 112.142 0H110.265C110.265 0 105.463 7.70732 100.019 0H98.1418C98.1418 0 93.3406 7.98951 87.695 0H86.019C86.019 0 80.3735 7.70732 75.5722 0H73.6946C73.6946 0 68.0616 8.28934 62.8319 0H61.3701C61.3701 0 56.3547 8.28934 50.7091 0H49.0331C49.0331 0 44.6477 8.28934 38.8005 0H37.1245C37.1245 0 32.3233 8.87135 25.846 0H24.17C24.17 0 18.9403 8.57153 14.1391 0H12.0598C12.0598 0 6.84271 8.87135 1.19716 0H0V10.0001H148.548V0Z" fill="#1F2124"/>
<path d="M297.095 0H296.012C296.012 0 291.626 7.70732 285.565 0H284.103C284.103 0 279.088 8.87135 272.812 0H271.35C271.35 0 266.965 7.40749 260.689 0H258.812C258.812 0 254.01 7.70732 248.566 0H246.689C246.689 0 241.887 7.98951 236.242 0H234.566C234.566 0 228.92 7.70732 224.119 0H222.241C222.241 0 216.609 8.28934 211.379 0H209.917C209.917 0 204.902 8.28934 199.256 0H197.58C197.58 0 193.195 8.28934 187.347 0H185.671C185.671 0 180.87 8.87135 174.393 0H172.717C172.717 0 167.487 8.57153 162.686 0H160.607C160.607 0 155.39 8.87135 149.744 0H148.547V10.0001H297.095V0Z" fill="#1F2124"/>
<path d="M444.65 0H443.566C443.566 0 439.181 7.70732 433.12 0H431.658C431.658 0 426.642 8.87135 420.367 0H418.905C418.905 0 414.519 7.40749 408.244 0H406.366C406.366 0 401.565 7.70732 396.121 0H394.243C394.243 0 389.442 7.98951 383.797 0H382.121C382.121 0 376.475 7.70732 371.674 0H369.796C369.796 0 364.163 8.28934 358.933 0H357.472C357.472 0 352.456 8.28934 346.811 0H345.135C345.135 0 340.749 8.28934 334.902 0H333.226C333.226 0 328.425 8.87135 321.948 0H320.272C320.272 0 315.042 8.57153 310.241 0H308.161C308.161 0 302.944 8.87135 297.299 0H296.102V10.0001H444.65V0Z" fill="#1F2124"/>
</svg>
