<svg width="108" height="32" viewBox="0 0 108 32" fill="none" xmlns="http://www.w3.org/2000/svg">
<g filter="url(#filter0_di_10926_11301)">
<path fill-rule="evenodd" clip-rule="evenodd" d="M40.2801 16C40.2801 10.4771 35.7633 6 30.1916 6C29.9316 6 29.6738 6.00975 29.4187 6.02891L16.3226 6.71429L28.246 8.00001L24.0634 8.05576C22.8228 8.99746 21.8092 10.2182 21.1181 11.6234L18.0374 12.0714L20.7404 12.4945C20.3284 13.5854 20.1031 14.7666 20.1031 16C20.1031 17.2334 20.3284 18.4146 20.7404 19.5055L18.0374 19.9286L21.1181 20.3766C21.809 21.7814 22.8222 23.0018 24.0623 23.9434L28.246 24C24.118 24.3068 21.7346 24.8042 17.6092 25.2857L29.4187 25.9711C29.6738 25.9902 29.9316 26 30.1916 26C35.7633 26 40.2801 21.5228 40.2801 16ZM26.4084 16C26.4084 18.0711 28.1022 19.75 30.1916 19.75C32.281 19.75 33.9748 18.0711 33.9748 16C33.9748 13.9289 32.281 12.25 30.1916 12.25C28.1022 12.25 26.4084 13.9289 26.4084 16Z" fill="#FFFFC1"/>
</g>
<path d="M86.3989 25.2853C86.001 25.2853 85.6783 24.9626 85.6783 24.5647V7.43447C85.6783 7.03649 86.001 6.71387 86.3989 6.71387H91.4432C91.8412 6.71387 92.1638 7.03649 92.1638 7.43447V24.5647C92.1638 24.9626 91.8412 25.2853 91.4432 25.2853H86.3989Z" fill="white"/>
<path fill-rule="evenodd" clip-rule="evenodd" d="M14.2528 18.1424C15.6983 17.2376 16.6015 15.3062 16.7749 13.1424C16.6015 8.62053 13.7916 6.71387 8.48793 6.71387H1.64218C1.2442 6.71387 0.92157 7.03649 0.92157 7.43447V24.5647C0.92157 24.9626 1.2442 25.2853 1.64218 25.2853H6.30111C6.7129 25.2853 7.04672 24.9515 7.04672 24.5397V19.2138H8.48793L10.4792 24.8064C10.5815 25.0935 10.8533 25.2853 11.1581 25.2853H17.2706C17.539 25.2853 17.7131 25.0023 17.5923 24.7627L14.2528 18.1424ZM8.48791 11.3568C9.60043 11.3568 9.92913 11.6607 9.92913 13.1425C9.92913 14.7256 9.54986 14.9282 8.48791 14.9282H7.0467V11.3568H8.48791Z" fill="white"/>
<path fill-rule="evenodd" clip-rule="evenodd" d="M84.5975 19.571C84.5975 23.131 82.3078 25.2853 77.0311 25.2853H69.4647C69.0668 25.2853 68.7441 24.9626 68.7441 24.5647V7.43447C68.7441 7.03649 69.0668 6.71387 69.4647 6.71387H77.0311C81.7603 6.71387 84.0002 8.74434 83.8769 11.7139C84.0002 13.5234 83.0793 14.7615 81.715 15.2853V15.6424C83.602 16.1729 84.5975 17.6338 84.5975 19.571ZM78.4723 19.5711C78.4723 18.4675 78.2749 18.1425 77.3914 18.1425H74.8692V20.6425H77.3914C78.2749 20.6425 78.4723 20.4175 78.4723 19.5711ZM77.0311 11.7139C77.8682 11.7139 78.112 11.9674 78.112 12.7854C78.112 13.6033 77.9169 13.8568 77.0311 13.8568H74.8692V11.7139H77.0311Z" fill="white"/>
<path d="M61.2714 20.11H66.9251C67.3298 20.11 67.6552 20.4432 67.6455 20.8478L67.5565 24.5818C67.5471 24.973 67.2274 25.2853 66.8361 25.2853H55.7731C55.3751 25.2853 55.0525 24.9626 55.0525 24.5647V7.43447C55.0525 7.03649 55.3751 6.71387 55.7731 6.71387H60.5508C60.9488 6.71387 61.2714 7.03649 61.2714 7.43447V20.11Z" fill="white"/>
<path d="M47.5799 20.11H53.2336C53.6383 20.11 53.9636 20.4432 53.954 20.8478L53.8649 24.5818C53.8556 24.973 53.5358 25.2853 53.1445 25.2853H42.0816C41.6836 25.2853 41.3609 24.9626 41.3609 24.5647V7.43447C41.3609 7.03649 41.6836 6.71387 42.0816 6.71387H46.8593C47.2573 6.71387 47.5799 7.03649 47.5799 7.43447V20.11Z" fill="white"/>
<path d="M108 11.1762C108.009 11.5807 107.684 11.9139 107.279 11.9139H103.758V24.5647C103.758 24.9626 103.435 25.2853 103.037 25.2853H98.2488C97.8508 25.2853 97.5288 24.9626 97.5288 24.5647V11.9139H93.9825C93.5778 11.9139 93.2525 11.5807 93.2621 11.1762L93.3511 7.41741C93.3603 7.02619 93.6801 6.71387 94.0715 6.71387H107.19C107.582 6.71387 107.902 7.02619 107.911 7.41742L108 11.1762Z" fill="white"/>
<defs>
<filter id="filter0_di_10926_11301" x="10.3226" y="0" width="35.9575" height="32" filterUnits="userSpaceOnUse" color-interpolation-filters="sRGB">
<feFlood flood-opacity="0" result="BackgroundImageFix"/>
<feColorMatrix in="SourceAlpha" type="matrix" values="0 0 0 0 0 0 0 0 0 0 0 0 0 0 0 0 0 0 127 0" result="hardAlpha"/>
<feOffset/>
<feGaussianBlur stdDeviation="3"/>
<feColorMatrix type="matrix" values="0 0 0 0 1 0 0 0 0 0.543599 0 0 0 0 0.0980392 0 0 0 1 0"/>
<feBlend mode="normal" in2="BackgroundImageFix" result="effect1_dropShadow_10926_11301"/>
<feBlend mode="normal" in="SourceGraphic" in2="effect1_dropShadow_10926_11301" result="shape"/>
<feColorMatrix in="SourceAlpha" type="matrix" values="0 0 0 0 0 0 0 0 0 0 0 0 0 0 0 0 0 0 127 0" result="hardAlpha"/>
<feOffset/>
<feGaussianBlur stdDeviation="0.5"/>
<feComposite in2="hardAlpha" operator="arithmetic" k2="-1" k3="1"/>
<feColorMatrix type="matrix" values="0 0 0 0 1 0 0 0 0 0.989929 0 0 0 0 0.224562 0 0 0 1 0"/>
<feBlend mode="normal" in2="shape" result="effect2_innerShadow_10926_11301"/>
</filter>
</defs>
</svg>
